<?xml version="1.0" encoding="UTF-8" standalone="no"?>
<!DOCTYPE svg PUBLIC "-//W3C//DTD SVG 1.1//EN" "http://www.w3.org/Graphics/SVG/1.1/DTD/svg11.dtd">
<svg xmlns="http://www.w3.org/2000/svg" version="1.1" width="1500" height="1500">
  <g style="fill:none; fill-opacity:1; fill-rule:evenodd;
            stroke:#000000; stroke-width:1.5;
            stroke-linecap:round;stroke-linejoin:round;stroke-miterlimit:4;
            stroke-dasharray:none; stroke-opacity:1;"
     transform="matrix(1,0,0,-1,250,1250)">
    <path
      d="M 500 431 q -63 0 -110 5 q -15 1 -26 3 q 8 -15 8 -31 q 0 -17 -7 -31 q
         21 7 89 11 q 21 1 46 1 q 99 0 135 -12 q -8 14 -8 31 q 0 15 8 31 q -58
         -8 -135 -8 z
         M 500 884 q -16 0 -27.5 -11.5 t -11.5 -25.5 q 0 -16 11.5 -26.5 t 27.5
         -10.5 q 15 0 27 10.5 t 12 26.5 q 0 15 -12 26 t -27 11 z
         M 500 352 q -41 0 -123 -8 q -24 -5 -24 -24 q 0 -16 68 -19 q -14 1 79 1
         q 146 0 146 18 q 0 23 -46 29 q -8 1 -63 2 q -10 0 -27 1 h -10 z
         M 499 467 q 139 0 171 26 q 22 17 31 87 q -5 62 -81 120 q -72 55 -122 61
         q -48 -6 -119 -61 q -75 -58 -80 -120 q 5 -37 9 -51 q 9 -29 29 -41 q 34
         -21 162 -21 z
         M 477 528 v 56 h -42 v 48 h 42 v 54 h 46 v -54 h 42 v -48 h -42 v -56 h
         -46 z
         M 498 274 q -8 0 -33 -19 q -17 -13 -34 -25 t -33 -14 q -37 -13 -92 -18
         q -8 0 -40 -2 q -48 -2 -60 -4 q -40 -9 -40 -34 q 5 -25 26 -25 q 5 0 28
         4 q 29 6 39 6 q 60 0 136 18 q 80 20 105 67 q 15 -29 56 -49 q 48 -23 119
         -31 l 33 -4 q 17 -1 32 -1 q 11 0 40 -6 q 22 -4 27 -4 q 22 0 27 25 q 0
         25 -40 34 q -13 2 -60 4 q -23 1 -74 6 q -26 3 -58 14 q -16 3 -32 13 q
         -10 5 -33 23 q -27 22 -39 22 z
         M 500 165 q -48 -50 -148 -60 q -47 -4 -140 -18 q -26 -6 -29 -24 q -33
         14 -61 63 q -14 23 -26 39 q 42 79 103 79 q 12 0 36.5 -2 t 36.5 -2 q 56
         0 120 24 q -88 10 -88 53 q 0 13 12.5 47.5 t 12.5 50.5 q -75 82 -75 155
         q 0 82 81 150 q 71 60 105 63 q -27 33 -27 71 q 0 36 26 57 q 23 19 61 19
         q 37 0 61.5 -20.5 t 24.5 -55.5 q 0 -38 -26 -71 q 36 -4 106 -64 q 80 -67
         80 -149 q 0 -72 -75 -155 q 0 -16 12.5 -50.5 t 12.5 -47.5 q 0 -43 -89
         -53 q 64 -24 120 -24 q 13 0 37 2 t 37 2 q 61 0 103 -79 q -19 -29 -37
         -58 q -21 -31 -50 -44 q -4 21 -48 29 q -10 2 -62 7 q -156 14 -207 66 z"
      style="fill:#000000; stroke:#000000;" />
   <path
      d="M 500 431 q -63 0 -110 5 q -15 1 -26 3 q 8 -15 8 -31 q 0 -17 -7 -31 q
         21 7 89 11 q 21 1 46 1 q 99 0 135 -12 q -8 14 -8 31 q 0 15 8 31 q -58
         -8 -135 -8 z
         M 500 884 q -16 0 -27.5 -11.5 t -11.5 -25.5 q 0 -16 11.5 -26.5 t 27.5
         -10.5 q 15 0 27 10.5 t 12 26.5 q 0 15 -12 26 t -27 11 z
         M 500 352 q -41 0 -123 -8 q -24 -5 -24 -24 q 0 -16 68 -19 q -14 1 79 1
         q 146 0 146 18 q 0 23 -46 29 q -8 1 -63 2 q -10 0 -27 1 h -10 z
         M 499 467 q 139 0 171 26 q 22 17 31 87 q -5 62 -81 120 q -72 55 -122 61
         q -48 -6 -119 -61 q -75 -58 -80 -120 q 5 -37 9 -51 q 9 -29 29 -41 q 34
         -21 162 -21 z
         M 477 528 v 56 h -42 v 48 h 42 v 54 h 46 v -54 h 42 v -48 h -42 v -56 h
         -46 z
         M 498 274 q -8 0 -33 -19 q -17 -13 -34 -25 t -33 -14 q -37 -13 -92 -18
         q -8 0 -40 -2 q -48 -2 -60 -4 q -40 -9 -40 -34 q 5 -25 26 -25 q 5 0 28
         4 q 29 6 39 6 q 60 0 136 18 q 80 20 105 67 q 15 -29 56 -49 q 48 -23 119
         -31 l 33 -4 q 17 -1 32 -1 q 11 0 40 -6 q 22 -4 27 -4 q 22 0 27 25 q 0
         25 -40 34 q -13 2 -60 4 q -23 1 -74 6 q -26 3 -58 14 q -16 3 -32 13 q
         -10 5 -33 23 q -27 22 -39 22 z"
      style="fill:#ffffff; stroke:#000000;" />
  </g>
</svg>
