<?xml version="1.0" encoding="UTF-8" standalone="no"?>
<!-- Created with Inkscape (http://www.inkscape.org/) -->

<svg
   xmlns:dc="http://purl.org/dc/elements/1.1/"
   xmlns:cc="http://creativecommons.org/ns#"
   xmlns:rdf="http://www.w3.org/1999/02/22-rdf-syntax-ns#"
   xmlns:svg="http://www.w3.org/2000/svg"
   xmlns="http://www.w3.org/2000/svg"
   xmlns:sodipodi="http://sodipodi.sourceforge.net/DTD/sodipodi-0.dtd"
   xmlns:inkscape="http://www.inkscape.org/namespaces/inkscape"
   width="192"
   height="192"
   viewBox="0 0 191.99999 191.99996"
   id="svg2"
   version="1.1"
   inkscape:version="0.91 r13725"
   sodipodi:docname="silhouette.svg"
   inkscape:export-filename="silhouette.png"
   inkscape:export-xdpi="16.875"
   inkscape:export-ydpi="16.875">
  <defs
     id="defs4">
    <linearGradient
       id="linearGradient2395">
      <stop
         offset="0"
         style="stop-color:#000000"
         id="stop2397" />
      <stop
         offset="1"
         style="stop-color:#eaeaea"
         id="stop2399" />
    </linearGradient>
    <linearGradient
       id="linearGradient2121">
      <stop
         offset="0"
         style="stop-color:#ffffff"
         id="stop2123" />
      <stop
         offset="1"
         style="stop-color:#000000"
         id="stop2125" />
    </linearGradient>
    <linearGradient
       id="linearGradient2059">
      <stop
         offset="0"
         style="stop-color:#ffffff"
         id="stop2061" />
      <stop
         offset="1"
         style="stop-color:#eaeaea"
         id="stop2063" />
    </linearGradient>
  </defs>
  <sodipodi:namedview
     id="base"
     pagecolor="#ffffff"
     bordercolor="#666666"
     borderopacity="1.0"
     inkscape:pageopacity="0.0"
     inkscape:pageshadow="2"
     inkscape:zoom="3.959798"
     inkscape:cx="90.592033"
     inkscape:cy="94.240351"
     inkscape:document-units="px"
     inkscape:current-layer="layer1"
     showgrid="false"
     inkscape:window-width="1735"
     inkscape:window-height="1047"
     inkscape:window-x="163"
     inkscape:window-y="46"
     inkscape:window-maximized="0"
     units="px" />
  <metadata
     id="metadata7">
    <rdf:RDF>
      <cc:Work
         rdf:about="">
        <dc:format>image/svg+xml</dc:format>
        <dc:type
           rdf:resource="http://purl.org/dc/dcmitype/StillImage" />
        <dc:title></dc:title>
      </cc:Work>
    </rdf:RDF>
  </metadata>
  <g
     inkscape:label="Layer 1"
     inkscape:groupmode="layer"
     id="layer1"
     transform="translate(0,-860.36239)">
    <g
       transform="matrix(0.37171153,0,0,0.37171153,-21.231188,644.18743)"
       id="layer1-9">
      <path
         transform="translate(67.115,584.71)"
         d="m 57.352,455.07 c -9.546,-9.48 -17.607,-18.24 -17.913,-19.45 -1.066,-4.23 1.206,-7.7 9.359,-14.29 15.861,-12.81 33.964,-21.92 53.782,-27.07 17.32,-4.5 25.91,-5.19 55,-4.44 34.27,0.88 48.69,-1.01 59.9,-7.85 l 3.9,-2.38 -7.9,-1.72 c -13.39,-2.91 -31.4,-9.35 -44.44,-15.89 -17.98,-9.01 -17.35,-6.19 -8.87,-39.92 3.77,-14.98 6.86,-27.69 6.86,-28.24 0,-0.55 -2.49,-2.78 -5.54,-4.97 -14.79,-10.59 -26.22,-27.83 -31.62,-47.69 -1.83,-6.71 -2.25,-10.77 -2.19,-20.84 0.1,-14.98 2.21,-23.91 8.9,-37.66 10.54,-21.67 24.7,-35.68 64,-63.36 13.42,-9.45 24.47,-17.58 32.25,-23.694 1.34,-1.054 0.86,-1.861 -3.55,-6 -7.29,-6.848 -10.69,-14.573 -10.69,-24.303 -0.02,-13.445 7.41,-24.618 20.49,-30.847 7.78,-3.707 18.21,-3.707 26,0 8.15,3.881 13.45,9.005 17.21,16.639 6.53,13.272 3.68,28.088 -7.42,38.511 -4.4,4.139 -4.88,4.946 -3.54,6 7.77,6.114 18.83,14.244 32.25,23.694 39.3,27.68 53.46,41.69 64,63.36 6.68,13.75 8.79,22.68 8.89,37.66 0.07,10.07 -0.36,14.13 -2.18,20.84 -5.4,19.86 -16.84,37.1 -31.63,47.69 -3.04,2.19 -5.54,4.42 -5.53,4.97 0,0.55 3.09,13.26 6.85,28.24 8.49,33.73 9.12,30.91 -8.86,39.92 -13.04,6.54 -31.05,12.98 -44.44,15.89 l -7.9,1.72 3.9,2.38 c 11.2,6.84 25.62,8.73 59.9,7.85 29.09,-0.75 37.68,-0.06 55,4.44 19.95,5.18 37.63,14.12 53.98,27.28 6.79,5.46 8.55,7.44 9.06,10.17 0.35,1.87 0.18,4.24 -0.37,5.26 -0.56,1.02 -8.62,9.39 -17.91,18.6 -11.8,11.7 -17.57,16.75 -19.14,16.75 -2.88,0 -4.67,-0.98 -12.35,-6.78 -7.87,-5.95 -20.05,-12.32 -29.79,-15.57 -11.03,-3.69 -25.41,-5.45 -53.98,-6.59 -35.81,-1.42 -51.49,-4.57 -69.7,-13.96 l -9.3,-4.79 -9.3,4.79 c -18.21,9.39 -33.89,12.54 -69.7,13.96 -28.57,1.14 -42.96,2.9 -53.99,6.59 -9.73,3.25 -21.915,9.62 -29.783,15.57 -7.679,5.8 -9.469,6.78 -12.348,6.78 -1.577,0 -7.449,-5.16 -19.607,-17.25 z"
         style="fill:#000000"
         id="path2437"
         inkscape:connector-curvature="0" />
      <path
         transform="translate(67.115,584.71)"
         d="m 191.81,274.89 c 37.34,-11.7 74.28,-12.54 112.01,-2.53 6.19,1.65 13.73,3.92 16.76,5.05 l 5.52,2.07 4.81,-3.53 c 26.65,-19.57 35.59,-55.45 21.21,-85.15 -9.39,-19.41 -23.86,-33.08 -66.65,-62.98 -7.08,-4.95 -17.49,-12.69 -23.13,-17.21 l -10.26,-8.21 -10.26,8.21 c -5.64,4.52 -16.05,12.26 -23.14,17.21 -42.78,29.9 -57.25,43.57 -66.64,62.98 -12.14,25.07 -7.92,54.89 10.71,75.6 5.51,6.12 14.58,13.07 16.33,12.5 0.82,-0.27 6.55,-2.07 12.73,-4.01 z"
         style="fill:#ffffff"
         id="path2612"
         inkscape:connector-curvature="0" />
      <path
         transform="translate(67.115,584.71)"
         d="m 184.81,328.37 c 9.39,-3.83 26.3,-8.57 38.27,-10.74 13.21,-2.39 44.8,-2.39 58,0 12.45,2.26 26.38,6.15 37.33,10.42 4.85,1.9 9.03,3.25 9.28,3 0.24,-0.25 -1.48,-8.21 -3.83,-17.69 -4.95,-19.95 -3.48,-18.27 -20.08,-22.93 -17.93,-5.04 -29.99,-6.57 -51.7,-6.57 -21.71,0 -33.77,1.53 -51.7,6.57 -16.53,4.64 -15.2,3.18 -19.72,21.54 -2.15,8.72 -4.11,16.64 -4.36,17.6 -0.61,2.34 0.06,2.24 8.51,-1.2 z"
         style="fill:#ffffff"
         id="path2610"
         inkscape:connector-curvature="0" />
      <path
         transform="translate(67.115,584.71)"
         d="m 285.69,360.88 c 11.98,-2.49 26.67,-7.13 33.33,-10.54 l 3.44,-1.75 -4.74,-2.1 c -8.42,-3.72 -25.87,-8.93 -36.14,-10.77 -13.97,-2.52 -45.04,-2.52 -59,0 -10.27,1.84 -27.73,7.05 -36.14,10.77 l -4.74,2.1 3.44,1.75 c 9.84,5.04 31.58,10.97 47.58,13 12.6,1.59 39.47,0.35 52.97,-2.46 z"
         style="fill:#ffffff"
         id="path2608"
         inkscape:connector-curvature="0" />
      <path
         transform="translate(67.115,584.71)"
         d="m 84.228,447.68 c 7.901,-5.38 24.142,-12.89 34.042,-15.75 13.16,-3.8 26.77,-5.43 54.81,-6.56 14.02,-0.57 28.42,-1.51 32,-2.08 15.16,-2.42 28.82,-7.65 39.92,-15.26 5.57,-3.82 8.59,-3.82 14.16,0 11.1,7.61 24.76,12.84 39.92,15.26 3.57,0.57 17.97,1.51 32,2.08 28.04,1.13 41.64,2.76 54.81,6.56 9.94,2.87 26.14,10.37 34.12,15.81 l 5.44,3.7 8.92,-8.92 8.92,-8.93 -8.47,-5.63 c -13.42,-8.93 -26.8,-14.58 -43.24,-18.26 -6.85,-1.53 -13.39,-1.8 -45.5,-1.89 -37.26,-0.11 -37.56,-0.13 -47.33,-2.76 -5.4,-1.46 -12.32,-3.79 -15.38,-5.19 -6.41,-2.94 -16.48,-9.95 -20.73,-14.43 -2.78,-2.95 -3.33,-3.11 -10.56,-3.11 -7.23,0 -7.78,0.16 -10.56,3.11 -4.25,4.48 -14.32,11.49 -20.74,14.43 -3.05,1.4 -9.97,3.73 -15.37,5.19 -9.77,2.63 -10.07,2.65 -47.33,2.76 -32.11,0.09 -38.65,0.36 -45.5,1.89 -16.305,3.65 -29.302,9.11 -43.143,18.13 l -8.663,5.65 8.881,8.92 c 4.885,4.91 8.959,8.92 9.052,8.92 0.094,0 2.578,-1.64 5.521,-3.64 z"
         style="fill:#ffffff"
         id="path2606"
         inkscape:connector-curvature="0" />
      <path
         transform="translate(67.115,584.71)"
         d="m 260.16,79.05 c 10.64,-7.17 10.64,-20.282 0,-27.452 -9.82,-6.613 -24.08,1.52 -24.08,13.726 0,12.207 14.26,20.339 24.08,13.726 z"
         style="fill:#ffffff"
         id="path2616"
         inkscape:connector-curvature="0" />
      <path
         transform="translate(67.115,584.71)"
         d="m 246.99,234.04 c -3.24,-2.49 -3.91,-5.57 -3.91,-18.07 l 0,-12.49 -13.59,-0.33 c -13.48,-0.32 -13.61,-0.35 -16,-3.13 -3.08,-3.59 -3.08,-7.8 0,-11.39 2.39,-2.78 2.53,-2.81 15.92,-3.13 l 13.52,-0.33 0.32,-13.51 c 0.33,-13.39 0.35,-13.54 3.13,-15.92 3.59,-3.09 7.81,-3.09 11.39,0 2.78,2.38 2.81,2.53 3.13,15.92 l 0.33,13.51 13.51,0.33 c 13.4,0.32 13.54,0.35 15.93,3.13 3.08,3.59 3.08,7.8 0,11.39 -2.39,2.78 -2.53,2.81 -16,3.13 l -13.59,0.33 0,12.49 c 0,12.5 -0.67,15.58 -3.91,18.07 -2.05,1.57 -8.13,1.57 -10.18,0 z"
         style="fill:#000000"
         id="path2614"
         inkscape:connector-curvature="0" />
    </g>
  </g>
</svg>
